<svg id="Warstwa_1" xmlns="http://www.w3.org/2000/svg" width="425.197" height="141.732" viewBox="0 0 425.197 141.732"><g fill="#eeeaea"><path d="M138.475 69.712h-17.02v9.77a1.831 1.831 0 0 1-1.849 1.851 1.831 1.831 0 0 1-1.85-1.851V57.725c0-1.037.813-1.852 1.85-1.852 1.036 0 1.849.813 1.849 1.852v8.436h17.02v-8.436c0-1.037.814-1.852 1.85-1.852s1.85.813 1.85 1.852v21.754a1.832 1.832 0 0 1-1.85 1.851 1.832 1.832 0 0 1-1.85-1.851v-9.767zM156.973 79.479c0 1.037-.814 1.851-1.852 1.851s-1.852-.813-1.852-1.851V57.725c0-1.037.814-1.852 1.852-1.852s1.852.813 1.852 1.852v21.754zM184.125 70.378c0-1.036.814-1.774 1.852-1.774 1.034 0 1.852.813 1.852 1.849V76.3c0 .444-.226 1.109-.595 1.479-2.367 2.369-5.549 3.773-9.176 3.773a12.915 12.915 0 0 1-12.949-12.948 12.913 12.913 0 0 1 12.949-12.949c3.627 0 6.809 1.405 9.176 3.771.738.74.738 1.852 0 2.592-.741.738-1.922.813-2.663.072-1.702-1.699-3.923-2.736-6.513-2.736-5.104 0-9.249 4.144-9.249 9.25 0 5.104 4.146 9.25 9.249 9.25 2.367 0 4.441-.813 6.067-2.222v-5.254zM218.162 69.712h-17.019v9.77a1.835 1.835 0 0 1-1.852 1.851 1.83 1.83 0 0 1-1.849-1.851V57.725c0-1.037.812-1.852 1.849-1.852 1.034 0 1.852.813 1.852 1.852v8.436h17.019v-8.436c0-1.037.813-1.852 1.849-1.852 1.037 0 1.852.813 1.852 1.852v21.754a1.832 1.832 0 0 1-1.852 1.851 1.833 1.833 0 0 1-1.849-1.851v-9.767zM242.948 81.552a12.913 12.913 0 0 1-12.949-12.948c0-7.181 5.77-12.949 12.949-12.949 3.627 0 6.809 1.405 9.176 3.771.738.74.738 1.852 0 2.592-.741.738-1.925.813-2.666.072-1.699-1.699-3.92-2.736-6.51-2.736-5.106 0-9.249 4.144-9.249 9.25 0 5.104 4.143 9.25 9.249 9.25 2.59 0 4.884-.962 6.586-2.664.74-.741 1.849-.741 2.59 0 .738.738.738 1.85 0 2.589-2.368 2.367-5.55 3.773-9.176 3.773zM281.569 69.712h-17.02v9.77a1.832 1.832 0 0 1-1.852 1.851 1.833 1.833 0 0 1-1.85-1.851V57.725c0-1.037.813-1.852 1.85-1.852 1.035 0 1.852.813 1.852 1.852v8.436h17.02v-8.436c0-1.037.813-1.852 1.853-1.852 1.034 0 1.849.813 1.849 1.852v21.754a1.831 1.831 0 0 1-1.849 1.851 1.834 1.834 0 0 1-1.853-1.851v-9.767zM308.758 57.503l10.507 20.646c.223.443.445 1.036.445 1.554 0 1.036-.668 1.628-1.702 1.628-.741 0-1.481-.222-2.001-1.258l-3.253-6.438h-13.547l-3.183 6.438c-.517 1.036-1.256 1.258-1.994 1.258-1.037 0-1.702-.593-1.702-1.628 0-.519.22-1.109.442-1.554l10.506-20.646c.668-1.405 2.002-1.628 2.74-1.628.744 0 2.074.221 2.742 1.628zm-7.773 12.58h9.988l-4.957-9.99-5.031 9.99zM340.159 56.023c4.441 0 8.064 3.255 8.064 7.694 0 3.923-2.813 6.884-6.511 7.549l6.731 7.104c.664.666.889 1.85.146 2.516-.736.741-2.145.521-2.886-.296l-8.729-9.176h-6.511v8.142c0 1.034-.815 1.774-1.854 1.774a1.833 1.833 0 0 1-1.85-1.851V57.873c0-1.035.814-1.85 1.85-1.85h11.55zm-9.691 3.552v8.288h9.691c2.59 0 4.367-1.776 4.367-4.146 0-2.365-1.777-4.144-4.367-4.144l-9.691.002zM365.047 59.575h-9.249c-1.033 0-1.849-.74-1.849-1.776 0-1.034.813-1.773 1.849-1.773h22.201c1.037 0 1.852.74 1.852 1.773 0 1.037-.813 1.776-1.852 1.776h-9.249V79.48a1.831 1.831 0 0 1-1.849 1.851 1.834 1.834 0 0 1-1.854-1.851V59.575zM388.724 66.013c0-9.25 5.698-10.359 9.99-10.359 1.035 0 1.85.813 1.85 1.85a1.832 1.832 0 0 1-1.85 1.851c-3.479 0-6.29.738-6.29 6.66v5.18c0 9.25-5.698 10.358-9.989 10.358-1.035 0-1.85-.813-1.85-1.85s.814-1.85 1.85-1.85c3.479 0 6.289-.74 6.289-6.66v-5.18z"/></g><path fill="#8087E8" d="M67.981 30.52L56.757 56.73 42.009 91.171l34.292-14.486 18.164-7.672z"/><path fill="#30426B" d="M73.7 62.25l2.602 14.435 18.164-7.672z"/><path fill="#6699A1" d="M67.981 30.52L73.7 62.251l20.765 6.762z"/><path fill="#78758C" d="M73.7 62.25l20.766 6.763-37.708-12.284-14.749 34.442 34.293-14.486z"/><path fill="#A3EDBA" d="M42.009 91.171L56.757 56.73l-30.315-9.875z"/><path fill="#6699A1" d="M76.302 76.685l3.326 18.445 14.838-26.117z"/><path fill="#8087E8" d="M67.981 30.52L56.757 56.73 73.7 62.251z"/></svg>